# xmcd CD database file
#
# Track frame offsets:
#	150
#	15036
#	29893
#	42659
#	61157
#	76248
#	87836
#	102283
#	116202
#	137738
#	159485
#	174154
#	190385
#	205910
#	218049
#
# Disc length: 3079 seconds
#
# Revision: 0
# Processed by: cddbd v1.4PL0 Copyright (c) Steve Scherf et al.
# Submitted via: CDex 1.50
#
DISCID=c70c050f
DTITLE=Stephen R Cheney -  - The Bush Telegraph
DYEAR=1900
DGENRE=Country
TTITLE0=It's A Hell Of A Day Tomorrow
TTITLE1=My Shoes Keep Walking Back To You
TTITLE2=I Fall To Pieces
TTITLE3=The Bush Telegraph
TTITLE4=It's Now Or Never
TTITLE5=Not Counting You
TTITLE6=I Couldn't Leave You If I Tried
TTITLE7=Words
TTITLE8=The Brave Old Pioneers
TTITLE9=Sing Australia
TTITLE10=Silver Wings
TTITLE11=For Baby (For Bobby)
TTITLE12=I Wanna Dance With You
TTITLE13=Yodel My Baby Back Home
TTITLE14=It's All Over Now
EXTD=
EXTT0=
EXTT1=
EXTT2=
EXTT3=
EXTT4=
EXTT5=
EXTT6=
EXTT7=
EXTT8=
EXTT9=
EXTT10=
EXTT11=
EXTT12=
EXTT13=
EXTT14=
PLAYORDER=
